<svg width="16" height="16" xmlns="http://www.w3.org/2000/svg" viewBox="0 0 16 16">
    <g fill="currentColor" fill-rule="nonzero">
        <path d="M1.25 6.14v3.72c.124.452.293.886.5 1.296V4.844c-.207.41-.376.844-.5 1.295Zm1-2.133v7.986c.154.222.321.435.5.637V3.37a7.031 7.031 0 0 0-.5.637Zm1-1.149v10.284c.16.148.327.288.5.42V2.438c-.173.133-.34.273-.5.421Zm1-.77v11.824c.162.103.329.2.5.29V1.798c-.171.09-.338.186-.5.29Zm1-.527v12.878c.164.07.33.134.5.192V1.369a6.95 6.95 0 0 0-.5.192Zm1.5-.45c-.169.03-.336.067-.5.11v13.558c.164.043.331.08.5.11V1.11Zm.5-.071v13.92c.165.018.332.03.5.036V1.004a7.058 7.058 0 0 0-.5.036Zm1 13.956a7 7 0 0 0 0-13.992v13.992ZM8 16A8 8 0 1 1 8 0a8 8 0 0 1 0 16Z"/>
        <path d="M14.75 6.14v3.72a6.952 6.952 0 0 1-.5 1.296V4.844c.207.41.376.844.5 1.295Zm-1-2.133v7.986a7.031 7.031 0 0 1-.5.637V3.37c.179.202.346.415.5.637Zm-1-1.149v10.284c-.16.148-.327.288-.5.42V2.438c.173.133.34.273.5.421Zm-1-.77v11.824c-.162.103-.329.2-.5.29V1.798c.171.09.338.186.5.29Zm-1-.527v12.878a6.95 6.95 0 0 1-.5.192V1.369c.17.058.336.122.5.192Zm-1.5-.45c.169.03.336.067.5.11v13.558a6.958 6.958 0 0 1-.5.11V1.11Zm-.5-.071v13.92c-.165.018-.332.03-.5.036V1.004c.168.006.335.018.5.036Zm-1 13.956a7 7 0 0 1 0-13.992v13.992ZM8 16A8 8 0 1 0 8 0a8 8 0 0 0 0 16Z"/>
    </g>
</svg>
