<svg width="16" height="16" xmlns="http://www.w3.org/2000/svg" viewBox="0 0 16 16">
    <path d="M1.5 13A1.5 1.5 0 0 0 3 14.5h6.77a1.5 1.5 0 0 0 1.5-1.5v-2.386l.75.434a1.654 1.654 0 1 0 0-2.866l-.75.435V6.23a1.5 1.5 0 0 0-1.5-1.5H7.382l.435-.75a1.654 1.654 0 1 0-2.866 0l.434.75H3a1.5 1.5 0 0 0-1.5 1.5v1.32a2.5 2.5 0 1 1 0 4.9v.549Zm10.77 0a2.5 2.5 0 0 1-2.5 2.5H3A2.5 2.5 0 0 1 .5 13v-2.134l.75.434a1.5 1.5 0 1 0 0-2.6l-.75.434V6.231A2.5 2.5 0 0 1 3 3.73h.794a2.654 2.654 0 1 1 5.182 0h.793a2.5 2.5 0 0 1 2.5 2.5v.794a2.654 2.654 0 1 1 0 5.182V13Z" fill="currentColor" fill-rule="nonzero"/>
</svg>
