<svg width="16" height="16" xmlns="http://www.w3.org/2000/svg" viewBox="0 0 16 16">
    <g fill="currentColor" fill-rule="nonzero">
        <path d="M11.75 1.5v3H12c.085 0 .169-.007.25-.02V1.52A1.51 1.51 0 0 0 12 1.5h-.25Zm-.5 0h-.5v3h.5v-3Zm-1.5 0v3h.5v-3h-.5Zm-.5 0h-.5v3h.5v-3Zm-1.5 0v3h.5v-3h-.5Zm-.5 0h-.5v3h.5v-3Zm-1.5 0v3h.5v-3h-.5Zm-.5 0h-.5v3h.5v-3Zm-1.5 0v3h.5v-3h-.5Zm-.5 0H3a1.51 1.51 0 0 0-.25.02v2.96c.081.013.165.02.25.02h.25v-3Zm9.5.2v2.6c.2-.117.372-.278.5-.47V2.17a1.508 1.508 0 0 0-.5-.47Zm-11 .47v1.66c.128.192.3.353.5.47V1.7c-.2.117-.372.278-.5.47ZM3 .5h9a2.5 2.5 0 1 1 0 5H3a2.5 2.5 0 0 1 0-5ZM1 8.5a.5.5 0 0 1 0-1h10.333a.5.5 0 1 1 0 1H1ZM1 11.5a.5.5 0 1 1 0-1h12.5a.5.5 0 1 1 0 1H1ZM1 14.5a.5.5 0 1 1 0-1h10.333a.5.5 0 1 1 0 1H1Z"/>
    </g>
</svg>
