<svg width="16" height="16" xmlns="http://www.w3.org/2000/svg" viewBox="0 0 16 16">
    <path d="M7.13 5.507A1 1 0 0 1 8 5h1a1 1 0 0 1 .848.47l1.342 1.693 1.785.476a.5.5 0 1 1-.257.966l-1.946-.519a.5.5 0 0 1-.263-.172L10 7.27V10a.997.997 0 0 1-.324.737l2.271 4.54a.5.5 0 1 1-.894.447L8.689 11h-.358c-.238.479-.653 1.204-1.25 2.186a.5.5 0 0 1-.255.21L3.87 14.477a.5.5 0 1 1-.344-.939l2.791-1.022c.46-.761.802-1.353 1.02-1.768A.998.998 0 0 1 7 10V7.244l-1.613 1.97a.5.5 0 1 1-.774-.634L7.13 5.507Zm.87.516V10h1V6.01L8.992 6H8.02a.51.51 0 0 1-.004.005L8 6.023ZM8.5 4.5a2 2 0 1 1 0-4 2 2 0 0 1 0 4Zm0-1a1 1 0 1 0 0-2 1 1 0 0 0 0 2Z" fill="currentColor" fill-rule="nonzero"/>
</svg>
