<svg width="16" height="16" xmlns="http://www.w3.org/2000/svg" viewBox="0 0 16 16">
    <g fill="currentColor" fill-rule="nonzero">
        <path d="M7.5 2.207 4.354 5.354A.5.5 0 0 1 4 5.5H3A1.5 1.5 0 0 0 1.5 7v2A1.5 1.5 0 0 0 3 10.5h1a.5.5 0 0 1 .354.146L7.5 13.793V2.207ZM3.793 4.5 7.646.646A.5.5 0 0 1 8.5 1v14a.5.5 0 0 1-.854.354L3.793 11.5H3A2.5 2.5 0 0 1 .5 9V7A2.5 2.5 0 0 1 3 4.5h.793ZM10 11.25a.25.25 0 1 1 0-.5 2.75 2.75 0 1 0 0-5.5.25.25 0 1 1 0-.5 3.25 3.25 0 0 1 0 6.5Z"/>
        <path d="M10 13.5a.5.5 0 1 1 0-1 4.5 4.5 0 1 0 0-9 .5.5 0 0 1 0-1 5.5 5.5 0 0 1 0 11Z"/>
        <path d="M10 9.25a.25.25 0 1 1 0-.5.75.75 0 1 0 0-1.5.25.25 0 1 1 0-.5 1.25 1.25 0 0 1 0 2.5Z"/>
    </g>
</svg>
