<svg width="16" height="16" xmlns="http://www.w3.org/2000/svg" viewBox="0 0 16 16">
    <g fill="currentColor" fill-rule="nonzero">
        <path d="M12.163 3.5 10.5 1.866V2.5c0 .555.437 1 .971 1h.692ZM9.5 1.5H5A1.5 1.5 0 0 0 3.5 3v10A1.5 1.5 0 0 0 5 14.5h6a1.5 1.5 0 0 0 1.5-1.5V4.5h-1.029c-1.09 0-1.971-.897-1.971-2v-1Zm4 11.5a2.5 2.5 0 0 1-2.5 2.5H5A2.5 2.5 0 0 1 2.5 13V3A2.5 2.5 0 0 1 5 .5h5.536L13.5 3.412V13Z"/>
        <path d="M8.5 11.5h1a.5.5 0 1 1 0 1h-3a.5.5 0 1 1 0-1h1v-5h-2v.647a.5.5 0 0 1-1 0V6a.5.5 0 0 1 .5-.5h6a.5.5 0 0 1 .5.5v1.147a.5.5 0 1 1-1 0V6.5h-2v5Z"/>
    </g>
</svg>
