<svg width="16" height="16" xmlns="http://www.w3.org/2000/svg" viewBox="0 0 16 16">
    <g fill="currentColor" fill-rule="nonzero">
        <path d="M2.707 5.786a.5.5 0 0 1 0-1h11.157a.5.5 0 1 1 0 1H2.707Z"/>
        <path d="M3.89 8.425a.5.5 0 0 1-.708.707L1.061 7.01a2.5 2.5 0 0 1 0-3.535l2.121-2.121a.5.5 0 1 1 .707.707L1.768 4.182a1.5 1.5 0 0 0 0 2.121l2.121 2.122ZM12.828 11.945a.5.5 0 0 0 0-1H1.672a.5.5 0 1 0 0 1h11.156Z"/>
        <path d="M11.646 14.584a.5.5 0 0 0 .708.707l2.12-2.122a2.5 2.5 0 0 0 0-3.535l-2.12-2.121a.5.5 0 1 0-.708.707l2.122 2.121a1.5 1.5 0 0 1 0 2.121l-2.122 2.122Z"/>
    </g>
</svg>
