<svg width="16" height="16" xmlns="http://www.w3.org/2000/svg" viewBox="0 0 16 16">
    <g fill="currentColor" fill-rule="nonzero">
        <path d="M11.25 13.332a3.99 3.99 0 0 0 .5-.937V10.5a.25.25 0 0 1 .023-.105.882.882 0 0 0-.523-.1v3.037Zm-.5.573v-3.49c-.15.055-.316.127-.5.217v3.676c.177-.121.345-.256.5-.403Zm-2 1.025v-3.46c-.186.107-.35.196-.5.273v3.25c.17-.011.337-.032.5-.063Zm.5-.13c.172-.056.34-.124.5-.202v-3.703a22.58 22.58 0 0 0-.5.286v3.62Zm-1.5.192v-3.018c-.17.068-.33.119-.5.16v2.796c.163.03.33.052.5.062Zm-3-1.66v-1.57a.25.25 0 0 1 .016-.088 4.819 4.819 0 0 1-.516-.388v1.11c.125.335.294.65.5.936Zm.467.542c.165.159.343.304.533.434v-2.184a3.24 3.24 0 0 1-.5-.183v1.809a.249.249 0 0 1-.033.124Zm1.533.927v-2.583a2.87 2.87 0 0 1-.5-.002V14.5a.25.25 0 0 1-.017.09c.166.082.339.152.517.21Zm5.049-5.506C11.159 6.592 9.14 4.343 8 2.555 6.937 4.157 4.687 6.752 4.128 9.71c.976 1.227 1.916 1.684 2.852 1.46.432-.103.83-.304 1.751-.845l.01-.006c1.409-.828 2.311-1.209 3.058-1.025ZM8 16c-2.761 0-5-2.239-5-5.006.012-2.163.873-4.198 2.45-6.55.365-.544 1.538-2.173 1.716-2.442l.85-1.283.827 1.298c.282.442 1.584 2.276 1.577 2.266C12.152 6.793 13.01 8.74 13 11a5 5 0 0 1-5 5Z"/>
        <path d="M7.073 5.24a.5.5 0 1 1 .854.52l-1 1.646a.5.5 0 1 1-.854-.519l1-1.647Z"/>
    </g>
</svg>
