<svg width="16" height="16" xmlns="http://www.w3.org/2000/svg" viewBox="0 0 16 16">
    <g fill="currentColor" fill-rule="nonzero">
        <path d="M11.25 5.5v5h.5v-5h-.5Zm-.5 0h-.5v5h.5v-5Zm-1.5 0v5h.5v-5h-.5Zm-.5 0h-.5v5h.5v-5Zm-1.5 0v5h.5v-5h-.5Zm-.5 0h-.5v5h.5v-5Zm-1.5 0v5h.5v-5h-.5Zm-.5 0h-.5v5h.5v-5Zm-1.5.2v4.6c.152.087.32.15.5.18V5.52a1.49 1.49 0 0 0-.5.18Zm-.5.47c-.158.238-.25.523-.25.83v2c0 .307.092.592.25.83V6.17Zm10-.47a1.49 1.49 0 0 0-.5-.18v4.96c.18-.03.348-.093.5-.18V5.7Zm.5.47v3.66c.158-.238.25-.523.25-.83V7c0-.307-.092-.592-.25-.83ZM14.5 7v2a2.5 2.5 0 0 1-2.5 2.5H4A2.5 2.5 0 0 1 1.5 9V7A2.5 2.5 0 0 1 4 4.5h8A2.5 2.5 0 0 1 14.5 7ZM.611 1.5a.5.5 0 0 1 0-1H15.5a.5.5 0 1 1 0 1H.611ZM.611 15.5a.5.5 0 1 1 0-1H15.5a.5.5 0 1 1 0 1H.611Z"/>
    </g>
</svg>
