<svg width="16" height="16" xmlns="http://www.w3.org/2000/svg" viewBox="0 0 16 16">
    <path d="M7 7H4.5a.5.5 0 0 1 0-1h8a.5.5 0 1 1 0 1H10v3a.996.996 0 0 1-.2.6.498.498 0 0 1 .164.214l1 2.5a.499.499 0 0 1 .036.188A6.502 6.502 0 0 0 8.5 1 6.5 6.5 0 0 0 6 13.502c0-.063.011-.126.036-.188l1-2.5A.498.498 0 0 1 7.2 10.6.996.996 0 0 1 7 10V7Zm2 0H8v3h1V7Zm0 4H8a.499.499 0 0 1-.036.186l-1 2.5a.5.5 0 0 1-.065.115 6.513 6.513 0 0 0 3.202 0 .5.5 0 0 1-.065-.115l-1-2.5A.499.499 0 0 1 9 11Zm-.5 4a7.5 7.5 0 1 1 0-15 7.5 7.5 0 0 1 0 15Zm0-9.5a2 2 0 1 1 0-4 2 2 0 0 1 0 4Zm0-1a1 1 0 1 0 0-2 1 1 0 0 0 0 2Z" fill="currentColor" fill-rule="nonzero"/>
</svg>
