<svg width="16" height="16" xmlns="http://www.w3.org/2000/svg" viewBox="0 0 16 16">
    <g fill="none" fill-rule="evenodd">
        <path d="m5 4 6.118 7.749" stroke="currentColor" stroke-linecap="round"/>
        <path d="M10.25 11.685C13.083 10.887 15 8.793 15 8c0-.989-2.974-4-7-4a8.39 8.39 0 0 0-2.75.47V6.8c.126-.288.295-.552.5-.784V5.5a.25.25 0 1 1 .5 0v.063a3 3 0 1 1 3 5.165v1.175c.17-.026.336-.057.5-.093v-1.06a.25.25 0 1 1 .5 0v.935Zm-1.5-.78c-.162.042-.329.07-.5.085v1.006c.169-.005.335-.016.5-.03v-1.06Zm0-1.05V9a.25.25 0 1 1 .5 0v.561a2 2 0 0 0-2.222-3.31.25.25 0 0 1 .222.249v3.355c.158.063.325.108.5.13V8a.25.25 0 1 1 .5 0v1.985c.175-.022.342-.067.5-.13Zm-1 1.135a2.992 2.992 0 0 1-.5-.085v1.06c.165.015.331.026.5.031V10.99Zm-1-.262a2.997 2.997 0 0 1-.5-.291v1.373c.164.036.33.067.5.093v-1.175Zm.01-4.297a2.01 2.01 0 0 0-.51.6v1.938c.127.229.297.43.5.592V6.5a.25.25 0 0 1 .01-.069ZM5.75 9.984a3.002 3.002 0 0 1-.5-.783v2.327c.163.057.33.11.5.157v-1.7Zm-4.5-2.642v1.315c.124.198.292.416.5.641V6.7a4.465 4.465 0 0 0-.5.642Zm1-1.13v3.575c.154.136.321.273.5.408V5.803a8.23 8.23 0 0 0-.5.409Zm1-.76v5.094c.16.104.326.205.5.304V5.149a9.2 9.2 0 0 0-.5.304Zm.978-.555A.25.25 0 0 1 4.25 5v6a.25.25 0 0 1-.022.102c.17.082.343.161.522.236V4.66a9.16 9.16 0 0 0-.522.236ZM8 13c-3.86 0-8-2.908-8-5 0-2.093 4.136-5 8-5 3.863 0 8 2.908 8 5 0 2.09-4.141 5-8 5Z" fill="currentColor" fill-rule="nonzero"/>
    </g>
</svg>
