<svg width="16" height="16" xmlns="http://www.w3.org/2000/svg" viewBox="0 0 16 16">
    <path d="M11.25 11.337a9.17 9.17 0 0 0 .5-.225V4.887a9.157 9.157 0 0 0-.5-.225v6.675Zm-.499.19a.253.253 0 0 1-.001-.027V9.2a3.002 3.002 0 0 1-.5.784v1.701c.17-.048.338-.1.501-.158ZM10.75 6.8V4.5c0-.01 0-.019.002-.028a8.79 8.79 0 0 0-.502-.158v1.702c.205.232.374.496.5.783Zm1.5 4.05c.174-.098.34-.2.5-.304V5.453a9.203 9.203 0 0 0-.5-.303v5.699Zm-7.5.489V4.66a9.156 9.156 0 0 0-.5.225v6.226c.162.08.329.155.5.226Zm.498.19c.164.056.331.11.502.157v-1.7a3.002 3.002 0 0 1-.5-.784V11.5c0 .01 0 .019-.002.028Zm.002-4.729c.126-.287.295-.551.5-.783V4.314c-.17.048-.338.1-.502.157l.002.029v2.3Zm-1.5 4.05v-5.7a9.2 9.2 0 0 0-.5.304v5.093c.16.104.326.205.5.304Zm2.5.961c.164.036.33.067.5.093v-1.175a2.997 2.997 0 0 1-.5-.291v1.373Zm3.5 0v-1.373c-.156.112-.323.21-.5.291v1.175c.17-.026.336-.057.5-.093Zm-2 .186V10.99a2.992 2.992 0 0 1-.5-.085v1.06c.165.015.331.026.5.031Zm.5 0c.169-.005.335-.016.5-.03v-1.06c-.162.041-.329.07-.5.084v1.006Zm.5-7.961a8.136 8.136 0 0 0-.5-.031V5.01c.171.014.338.043.5.085v-1.06Zm.5.062v1.175c.177.081.344.179.5.291V4.19a8.401 8.401 0 0 0-.5-.093ZM8.969 6.25H7.031a2.01 2.01 0 0 0-.592.5H9.56a2.01 2.01 0 0 0-.592-.5Zm0 3.5a2.01 2.01 0 0 0 .592-.5H6.44c.162.203.363.373.592.5h1.938Zm.886-1c.063-.158.108-.325.13-.5h-3.97c.022.175.067.342.13.5h3.71Zm.13-1a1.987 1.987 0 0 0-.13-.5h-3.71a1.987 1.987 0 0 0-.13.5h3.97ZM7.75 4.004a8.142 8.142 0 0 0-.5.03v1.06c.162-.041.329-.07.5-.084V4.004Zm-1 .093c-.17.026-.336.057-.5.093v1.373c.156-.112.323-.21.5-.291V4.097Zm6.5 1.707v4.39c.179-.135.346-.272.5-.408V6.213a8.237 8.237 0 0 0-.5-.409Zm1 .897v2.596a4.47 4.47 0 0 0 .5-.64V7.343a4.47 4.47 0 0 0-.5-.642Zm-11.5-.898a8.23 8.23 0 0 0-.5.409v3.575c.154.136.321.273.5.408V5.803Zm-1.5 1.539v1.315c.124.198.292.416.5.641V6.7a4.465 4.465 0 0 0-.5.642ZM8 13c-3.86 0-8-2.908-8-5 0-2.093 4.136-5 8-5 3.863 0 8 2.908 8 5 0 2.09-4.141 5-8 5Z" fill="currentColor" fill-rule="nonzero"/>
</svg>
