<svg width="16" height="16" xmlns="http://www.w3.org/2000/svg" viewBox="0 0 16 16">
    <path d="M9.75 10.855c.181-.074.35-.173.5-.294V4h-.5v6.855Zm-.5.13V4h-.5v7H9c.085 0 .168-.005.25-.015ZM7.75 11h.5V4h-.5v7Zm-.5 0V4h-.5v7h.5Zm-2.5 0h.5V4.145c-.181.074-.35.173-.5.294V11Zm-.5 0V5.031C4.09 5.318 4 5.648 4 6v5h.25Zm6.5-1.031c.16-.287.25-.617.25-.969V4h-.25v5.969ZM6.25 11V4H6a2.02 2.02 0 0 0-.25.015V11h.5ZM3 11V6a3 3 0 0 1 3-3h5a2 2 0 0 0-2-2H3a2 2 0 0 0-2 2v6a2 2 0 0 0 2 2Zm9-8h1a3 3 0 0 1 3 3v7a3 3 0 0 1-3 3H6a3 3 0 0 1-3-3v-1a3 3 0 0 1-3-3V3a3 3 0 0 1 3-3h6a3 3 0 0 1 3 3Zm0 1v5a3 3 0 0 1-3 3H4v1a2 2 0 0 0 2 2h7a2 2 0 0 0 2-2V6a2 2 0 0 0-2-2h-1Z" fill="currentColor" fill-rule="nonzero"/>
</svg>
