<svg width="16" height="16" xmlns="http://www.w3.org/2000/svg" viewBox="0 0 16 16">
    <g fill="currentColor" fill-rule="nonzero">
        <path d="m6.116 7.128.012.064.153 1.178c.065.51-.587.775-.896.365L3.4 6.1a.5.5 0 0 0-.798.601l4.1 5.442a.5.5 0 0 1 .097.237l.132 1.02a1 1 0 0 0 .991.873h3.076a1 1 0 0 0 .985-.83l1.089-6.275A.5.5 0 1 0 12.1 7h-1V6a.5.5 0 1 0-1 0h-1V5a.5.5 0 1 0-1 0h-1V2a.5.5 0 1 0-1 0v5c0 .044.005.087.016.128ZM5.1 6.694V2a1.5 1.5 0 0 1 3 0v1.585a1.5 1.5 0 0 1 1.947 1.02 1.5 1.5 0 0 1 2 1A1.5 1.5 0 0 1 14.1 7c0 .173-.03.344-.066.421l-1.066 6.191a2 2 0 0 1-1.971 1.66H7.92a2 2 0 0 1-1.983-1.743l-.115-.89-4.02-5.336a1.5 1.5 0 1 1 2.395-1.805L5.1 6.694Z"/>
        <path d="M7.1 5a.5.5 0 0 1 1 0v2.22a.5.5 0 1 1-1 0V5ZM9.1 5a.5.5 0 0 1 1 0v2.22a.5.5 0 0 1-1 0V5Z"/>
        <path d="M9.1 5a.5.5 0 0 1 1 0v2.22a.5.5 0 0 1-1 0V5ZM11.1 6.5a.5.5 0 1 1 1 0v.72a.5.5 0 1 1-1 0V6.5Z"/>
    </g>
</svg>
