<svg width="16" height="16" xmlns="http://www.w3.org/2000/svg" viewBox="0 0 16 16">
    <g fill="currentColor" fill-rule="nonzero">
        <path d="M3 1.5A1.5 1.5 0 0 0 1.5 3v10A1.5 1.5 0 0 0 3 14.5h10a1.5 1.5 0 0 0 1.5-1.5V3A1.5 1.5 0 0 0 13 1.5H3Zm0-1h10A2.5 2.5 0 0 1 15.5 3v10a2.5 2.5 0 0 1-2.5 2.5H3A2.5 2.5 0 0 1 .5 13V3A2.5 2.5 0 0 1 3 .5Z"/>
        <path d="M7.5 7.5v-1a.5.5 0 0 1 1 0v1h1a.5.5 0 0 1 0 1h-1v1a.5.5 0 0 1-1 0v-1h-1a.5.5 0 0 1 0-1h1Zm4.5-4a.5.5 0 1 1 0-1A1.5 1.5 0 0 1 13.5 4a.5.5 0 1 1-1 0 .5.5 0 0 0-.5-.5Zm.5 8.5a.5.5 0 1 1 1 0 1.5 1.5 0 0 1-1.5 1.5.5.5 0 1 1 0-1 .5.5 0 0 0 .5-.5Zm-8.5.5a.5.5 0 1 1 0 1A1.5 1.5 0 0 1 2.5 12a.5.5 0 1 1 1 0 .5.5 0 0 0 .5.5ZM3.5 4a.5.5 0 0 1-1 0A1.5 1.5 0 0 1 4 2.5a.5.5 0 0 1 0 1 .5.5 0 0 0-.5.5Z"/>
    </g>
</svg>
