<svg width="16" height="16" xmlns="http://www.w3.org/2000/svg" viewBox="0 0 16 16">
    <path d="M12.5 10.5a2 2 0 0 1 1.981-2 6.598 6.598 0 0 0 0-1 2 2 0 0 1-1.335-3.472 6.542 6.542 0 0 0-1.174-1.174A2 2 0 0 1 8.5 1.52a6.598 6.598 0 0 0-1 0 2 2 0 0 1-3.472 1.335c-.44.34-.834.735-1.174 1.174A2 2 0 0 1 1.52 7.5a6.598 6.598 0 0 0 0 1 2 2 0 0 1 1.335 3.472c.34.44.735.834 1.174 1.174A2 2 0 0 1 7.5 14.48a6.598 6.598 0 0 0 1 0 2 2 0 0 1 3.472-1.335c.44-.34.834-.735 1.174-1.174-.403-.37-.646-.9-.646-1.472Zm1.764 1.626a7.538 7.538 0 0 1-2.138 2.138.5.5 0 0 1-.725-.2 1 1 0 0 0-1.861.716.5.5 0 0 1-.405.635 7.555 7.555 0 0 1-2.27 0 .5.5 0 0 1-.405-.635 1 1 0 0 0-1.86-.715.5.5 0 0 1-.726.199 7.538 7.538 0 0 1-2.138-2.138.5.5 0 0 1 .2-.725A1 1 0 0 0 1.22 9.54a.5.5 0 0 1-.635-.405 7.555 7.555 0 0 1 0-2.27.5.5 0 0 1 .635-.405 1 1 0 0 0 .715-1.86.5.5 0 0 1-.199-.726 7.538 7.538 0 0 1 2.138-2.138.5.5 0 0 1 .725.2A1 1 0 0 0 6.46 1.22a.5.5 0 0 1 .405-.635 7.555 7.555 0 0 1 2.27 0 .5.5 0 0 1 .405.635 1 1 0 0 0 1.86.715.5.5 0 0 1 .726-.199 7.538 7.538 0 0 1 2.138 2.138.5.5 0 0 1-.2.725 1 1 0 0 0 .716 1.861.5.5 0 0 1 .635.405 7.555 7.555 0 0 1 0 2.27.5.5 0 0 1-.635.405 1 1 0 0 0-.715 1.86.5.5 0 0 1 .199.726ZM8 11.5a3.5 3.5 0 1 1 0-7 3.5 3.5 0 0 1 0 7Zm0-1a2.5 2.5 0 1 0 0-5 2.5 2.5 0 0 0 0 5Z" fill="currentColor" fill-rule="nonzero"/>
</svg>
