<svg width="16" height="16" xmlns="http://www.w3.org/2000/svg" viewBox="0 0 16 16">
    <path d="M8.49 8.137c.25.222.475.472.67.744.406.026 1.354.126 2.898.305a.5.5 0 0 1 .435.581l-.723 4.196a.5.5 0 0 1-.985-.17l.633-3.674c-.722-.083-1.29-.144-1.698-.185A4.5 4.5 0 1 1 5.425 7l2.26-2.576-1.316-.46-2.045 1.738a.5.5 0 0 1-.648-.762L5.94 3.018a.5.5 0 0 1 .489-.091l2.331.814c.29-.028.584.048.82.247l.511.429c.511.428.508 1.21.058 1.746L8.49 8.137Zm-.82-.58L9.384 5.52c.119-.141.12-.292.066-.337l-.511-.429c-.054-.045-.202-.018-.328.131L6.63 7.143c.367.095.716.235 1.04.414ZM5.5 15a3.5 3.5 0 1 0 0-7 3.5 3.5 0 0 0 0 7Zm5.835-12a1 1 0 1 0 0-2 1 1 0 0 0 0 2Zm0 1a2 2 0 1 1 0-4 2 2 0 0 1 0 4Z" fill="currentColor" fill-rule="nonzero"/>
</svg>
