<svg width="16" height="16" xmlns="http://www.w3.org/2000/svg" viewBox="0 0 16 16">
    <path d="M9.25 1.111a6.994 6.994 0 0 0-.5-.071v1.949a3.721 3.721 0 0 0 .5-.153V1.111Zm.5.11v1.355c.396-.275.619-.65.69-1.14a6.945 6.945 0 0 0-.69-.215Zm-2.5 13.74v-1.53c-.062.01-.113.02-.134.024-.137.026-.257.05-.366.075v1.359c.165.03.331.053.5.071Zm.5.035a7.126 7.126 0 0 0 .5 0v-1.78a6.404 6.404 0 0 1-.5.12v1.66Zm-2-.365c.164.055.33.105.5.148v-1.116c-.223.071-.389.144-.5.23v.738Zm3 .33c.169-.019.335-.043.5-.072V8.707a5.434 5.434 0 0 1-.5-.363v2.7c.419.651.526 1.18.301 1.624A.86.86 0 0 1 8.75 13v1.96Zm4.5-2.33V8.08c-.174-.435-.341-.768-.5-.998v6.06c.175-.162.342-.333.5-.512Zm.5-.638c.168-.241.321-.494.458-.756a37.543 37.543 0 0 0-.458-1.691v2.447Zm-1.5 1.57v-6.37l-.09.203a4.665 4.665 0 0 1-.41.76v5.756c.172-.11.339-.226.5-.35Zm-1 .638V8.713c-.16.13-.327.221-.5.278v5.448c.17-.073.337-.152.5-.238Zm-1 .43V9.057a1.727 1.727 0 0 1-.5-.103v5.825c.17-.043.336-.093.5-.148Zm-2-4.254V8.663c-.222.237-.497.512-.826.826.318.316.594.612.826.888Zm0-9.373a7.126 7.126 0 0 0-.5 0v2.497c.145-.13.31-.24.5-.332V1.004Zm-1 .036a6.994 6.994 0 0 0-.5.071v4.41l.157.12a8.25 8.25 0 0 0 .013-.1c.063-.496.079-.597.144-.846.048-.185.11-.358.186-.517V1.04Zm-1 .18c-.17.044-.336.094-.5.15v3.44a8.431 8.431 0 0 1 .5.348V1.22Zm-1 .34c-.17.074-.337.153-.5.239v2.507c.166.057.332.128.5.214V1.56Zm-1 .528c-.172.11-.339.226-.5.35v1.708h.058c.15 0 .297.012.442.035V2.088Zm-1 .77c-.206.19-.401.394-.583.608.014.341.178.547.583.633v-1.24Zm11.577 6.695a6.998 6.998 0 0 0-3.452-7.688c-.259 1.063-1.065 1.771-2.347 2.085-.582.142-.855.454-.997.997-.05.19-.062.275-.119.72-.08.633-.151.865-.52 1.036-.34.158-.634.051-1.035-.219-.151-.102-.737-.548-.838-.62-.664-.48-1.19-.718-1.711-.718-.853 0-1.487-.24-1.836-.707A6.968 6.968 0 0 0 1 8a6.998 6.998 0 0 0 3.535 6.084c-.028-.692.543-1.112 1.51-1.405a8.47 8.47 0 0 1 .883-.206c.945-.18 1.231-.257 1.231-.258.11-.215-.449-1.081-1.803-2.37l-.385-.366.39-.362c.902-.841 1.457-1.425 1.636-1.71.21-.338.561-.358.87-.203.128.064.223.134.45.314.22.174.31.242.433.322.63.409.992.307 1.494-.844.578-1.324 1.52-1.611 2.297-.528.444.62.842 1.51 1.286 3.085ZM8 16A8 8 0 1 1 8 0a8 8 0 0 1 0 16Z" fill="currentColor" fill-rule="nonzero"/>
</svg>
