<svg width="16" height="16" xmlns="http://www.w3.org/2000/svg" viewBox="0 0 16 16">
    <g fill="currentColor" fill-rule="nonzero">
        <path d="M8 2.5c.456-.607 1.182-1 2-1h3A2.5 2.5 0 0 1 15.5 4v5a2.5 2.5 0 0 1-2.5 2.5h-3A1.5 1.5 0 0 0 8.5 13a.5.5 0 1 1-1 0A1.5 1.5 0 0 0 6 11.5H3A2.5 2.5 0 0 1 .5 9V4A2.5 2.5 0 0 1 3 1.5h3c.818 0 1.544.393 2 1ZM8.5 4v7c.418-.314.937-.5 1.5-.5h3A1.5 1.5 0 0 0 14.5 9V4A1.5 1.5 0 0 0 13 2.5h-3A1.5 1.5 0 0 0 8.5 4Zm-1 0A1.5 1.5 0 0 0 6 2.5H3A1.5 1.5 0 0 0 1.5 4v5A1.5 1.5 0 0 0 3 10.5h3c.563 0 1.082.186 1.5.5V4Z"/>
        <path d="M8 12.5h5c.528 0 1.009-.275 1.28-.718.125-.203.201-.74.219-1.522.005-.252.006-.47.003-.887A50.95 50.95 0 0 1 14.5 9a.5.5 0 1 1 1 0l.002.366c.003.427.002.651-.003.916-.022.967-.114 1.61-.366 2.023A2.498 2.498 0 0 1 13 13.5H8a.5.5 0 1 0 0-1H3a1.499 1.499 0 0 1-1.28-.718c-.125-.203-.201-.74-.219-1.522a28.542 28.542 0 0 1-.003-.887L1.5 9a.5.5 0 0 0-1 0l-.002.366c-.003.427-.002.651.003.916.022.967.114 1.61.366 2.023A2.498 2.498 0 0 0 3 13.5h5ZM10 5.5a.5.5 0 0 1 0-1h3.5a.5.5 0 1 1 0 1H10ZM10 7.5a.5.5 0 0 1 0-1h2.5a.5.5 0 1 1 0 1H10Z"/>
    </g>
</svg>
