<svg width="16" height="16" xmlns="http://www.w3.org/2000/svg" viewBox="0 0 16 16">
    <g fill="currentColor" fill-rule="nonzero">
        <path d="M5.95 7h6.55a2.5 2.5 0 1 0 0-5H5.95A3.49 3.49 0 0 1 7 4.5 3.49 3.49 0 0 1 5.95 7ZM3.5 1h9a3.5 3.5 0 0 1 0 7h-9a3.5 3.5 0 0 1 0-7Zm0 6a2.5 2.5 0 1 0 0-5 2.5 2.5 0 0 0 0 5ZM9.25 11.198V10h-.5v5h.5v-1.198A3.49 3.49 0 0 1 9 12.5c0-.46.089-.9.25-1.302Zm.8-1.198h-.3v.335a3.52 3.52 0 0 1 .3-.335Zm0 5a3.52 3.52 0 0 1-.3-.335V15h.3Zm-1.8-5h-.5v5h.5v-5Zm-1.5 0v5h.5v-5h-.5Zm-.5 0h-.5v5h.5v-5Zm-1.5 0v5h.5v-5h-.5Zm-.5 0h-.5v5h.5v-5Zm-2.5.715v3.57c.15.147.317.275.5.38v-4.33a2.51 2.51 0 0 0-.5.38Zm-.5.694c-.16.33-.25.7-.25 1.091s.09.761.25 1.091v-2.182Zm2-1.397c-.172.017-.34.052-.5.102v4.772c.16.05.328.085.5.102v-4.976ZM3.5 9h9a3.5 3.5 0 0 1 0 7h-9a3.5 3.5 0 0 1 0-7Zm9 6a2.5 2.5 0 1 0 0-5 2.5 2.5 0 0 0 0 5Z"/>
    </g>
</svg>
