<svg width="16" height="16" xmlns="http://www.w3.org/2000/svg" viewBox="0 0 16 16">
    <g fill="currentColor" fill-rule="nonzero">
        <path d="M8.839 6.354a.5.5 0 1 1 .707-.708l.707.708a2.5 2.5 0 0 1 0 3.535l-4.95 4.95a2.5 2.5 0 0 1-3.535 0l-.707-.707a2.5 2.5 0 0 1 0-3.536l2.984-2.985a.5.5 0 1 1 .708.708l-2.985 2.984a1.5 1.5 0 0 0 0 2.122l.707.707a1.5 1.5 0 0 0 2.121 0l4.95-4.95a1.5 1.5 0 0 0 0-2.121l-.707-.707Z"/>
        <path d="M7.475 9.546a.5.5 0 0 1-.707.707l-.707-.707a2.5 2.5 0 0 1 0-3.536l4.95-4.95a2.5 2.5 0 0 1 3.535 0l.707.708a2.5 2.5 0 0 1 0 3.535l-2.985 2.985a.5.5 0 1 1-.707-.707l2.985-2.985a1.5 1.5 0 0 0 0-2.121l-.707-.707a1.5 1.5 0 0 0-2.121 0l-4.95 4.95a1.5 1.5 0 0 0 0 2.12l.707.708Z"/>
    </g>
</svg>
