<svg width="16" height="16" xmlns="http://www.w3.org/2000/svg" viewBox="0 0 16 16">
    <g fill="currentColor" fill-rule="nonzero">
        <path d="M5.611 3.5a.5.5 0 0 1 0-1h9.778a.5.5 0 1 1 0 1H5.61ZM2 4a1 1 0 1 0 0-2 1 1 0 0 0 0 2Zm0 1a2 2 0 1 1 0-4 2 2 0 0 1 0 4ZM5.611 8.5a.5.5 0 0 1 0-1h9.778a.5.5 0 1 1 0 1H5.61ZM2 9a1 1 0 1 0 0-2 1 1 0 0 0 0 2Zm0 1a2 2 0 1 1 0-4 2 2 0 0 1 0 4ZM5.611 13.5a.5.5 0 1 1 0-1h9.778a.5.5 0 1 1 0 1H5.61ZM2 14a1 1 0 1 0 0-2 1 1 0 0 0 0 2Zm0 1a2 2 0 1 1 0-4 2 2 0 0 1 0 4Z"/>
    </g>
</svg>
