<svg width="16" height="16" xmlns="http://www.w3.org/2000/svg" viewBox="0 0 16 16">
    <g fill="currentColor" fill-rule="nonzero">
        <path d="M2.121 7.743a.5.5 0 0 0 0 1H13.5a.5.5 0 0 0 0-1H2.121Z"/>
        <path d="M3.89 5.06a.5.5 0 0 0-.708-.706l-2.121 2.12a2.5 2.5 0 0 0 0 3.536l2.121 2.122a.5.5 0 0 0 .707-.707L1.768 9.303a1.5 1.5 0 0 1 0-2.121l2.121-2.121ZM12.182 5.06a.5.5 0 1 1 .707-.706l2.121 2.12a2.5 2.5 0 0 1 0 3.536l-2.12 2.122a.5.5 0 1 1-.708-.707l2.121-2.122a1.5 1.5 0 0 0 0-2.121l-2.121-2.121Z"/>
    </g>
</svg>
