<svg width="16" height="16" xmlns="http://www.w3.org/2000/svg" viewBox="0 0 16 16">
    <g fill="currentColor" fill-rule="nonzero">
        <path d="M8.55 2.502a2.5 2.5 0 0 1 4.9 0 .506.506 0 0 1 .05-.002h2a.5.5 0 1 1 0 1h-2c-.017 0-.033 0-.05-.002a2.5 2.5 0 0 1-4.9 0 .506.506 0 0 1-.05.002h-8a.5.5 0 0 1 0-1h8c.017 0 .033 0 .05.002ZM11 4.5a1.5 1.5 0 1 0 0-3 1.5 1.5 0 0 0 0 3ZM7.55 12.502a2.5 2.5 0 0 1 4.9 0 .506.506 0 0 1 .05-.002h3a.5.5 0 1 1 0 1h-3c-.017 0-.033 0-.05-.002a2.5 2.5 0 0 1-4.9 0 .506.506 0 0 1-.05.002h-7a.5.5 0 1 1 0-1h7c.017 0 .033 0 .05.002ZM10 14.5a1.5 1.5 0 1 0 0-3 1.5 1.5 0 0 0 0 3ZM7.45 8.498a2.5 2.5 0 0 1-4.9 0 .506.506 0 0 1-.05.002h-2a.5.5 0 0 1 0-1h2c.017 0 .033 0 .05.002a2.5 2.5 0 0 1 4.9 0A.506.506 0 0 1 7.5 7.5h8a.5.5 0 1 1 0 1h-8c-.017 0-.033 0-.05-.002ZM5 9.5a1.5 1.5 0 1 0 0-3 1.5 1.5 0 0 0 0 3Z"/>
    </g>
</svg>
