<svg width="16" height="16" xmlns="http://www.w3.org/2000/svg" viewBox="0 0 16 16">
    <g fill="currentColor" fill-rule="nonzero">
        <path d="M8 15A7 7 0 1 0 8 1a7 7 0 0 0 0 14Zm0 1A8 8 0 1 1 8 0a8 8 0 0 1 0 16Z"/>
        <path d="M8 11a3 3 0 1 0 0-6 3 3 0 0 0 0 6Zm0 .5a3.5 3.5 0 1 1 0-7 3.5 3.5 0 0 1 0 7Z"/>
        <path d="M8 9a1 1 0 1 0 0-2 1 1 0 0 0 0 2Zm0 1a2 2 0 1 1 0-4 2 2 0 0 1 0 4Z"/>
        <path d="M8 13A5 5 0 1 0 8 3a5 5 0 0 0 0 10Zm0 .5a5.5 5.5 0 1 1 0-11 5.5 5.5 0 0 1 0 11Z"/>
    </g>
</svg>
