<svg width="16" height="16" xmlns="http://www.w3.org/2000/svg" viewBox="0 0 16 16">
    <g fill="currentColor" fill-rule="nonzero">
        <path d="M3 1.5A1.5 1.5 0 0 0 1.5 3v2A1.5 1.5 0 0 0 3 6.5h2A1.5 1.5 0 0 0 6.5 5V3A1.5 1.5 0 0 0 5 1.5H3Zm0-1h2A2.5 2.5 0 0 1 7.5 3v2A2.5 2.5 0 0 1 5 7.5H3A2.5 2.5 0 0 1 .5 5V3A2.5 2.5 0 0 1 3 .5ZM11 1.5A1.5 1.5 0 0 0 9.5 3v2A1.5 1.5 0 0 0 11 6.5h2A1.5 1.5 0 0 0 14.5 5V3A1.5 1.5 0 0 0 13 1.5h-2Zm0-1h2A2.5 2.5 0 0 1 15.5 3v2A2.5 2.5 0 0 1 13 7.5h-2A2.5 2.5 0 0 1 8.5 5V3A2.5 2.5 0 0 1 11 .5ZM3 9.5A1.5 1.5 0 0 0 1.5 11v2A1.5 1.5 0 0 0 3 14.5h2A1.5 1.5 0 0 0 6.5 13v-2A1.5 1.5 0 0 0 5 9.5H3Zm0-1h2A2.5 2.5 0 0 1 7.5 11v2A2.5 2.5 0 0 1 5 15.5H3A2.5 2.5 0 0 1 .5 13v-2A2.5 2.5 0 0 1 3 8.5ZM11 9.5A1.5 1.5 0 0 0 9.5 11v2a1.5 1.5 0 0 0 1.5 1.5h2a1.5 1.5 0 0 0 1.5-1.5v-2A1.5 1.5 0 0 0 13 9.5h-2Zm0-1h2a2.5 2.5 0 0 1 2.5 2.5v2a2.5 2.5 0 0 1-2.5 2.5h-2A2.5 2.5 0 0 1 8.5 13v-2A2.5 2.5 0 0 1 11 8.5Z"/>
    </g>
</svg>
