<svg width="16" height="16" xmlns="http://www.w3.org/2000/svg" viewBox="0 0 16 16">
    <g fill="currentColor" fill-rule="nonzero">
        <path d="m1.5 10.902 2.902-2.527 2.877 1.868.04-.042.65.768-.536.566-2.943-1.91-2.975 2.59A1.5 1.5 0 0 0 3 13.5h6.957l.846 1H3A2.5 2.5 0 0 1 .5 12V4c0-.463.126-.897.345-1.268l.716.845A1.5 1.5 0 0 0 1.5 4v6.902Zm13-1.641-2.96-2.069-.806.852-.65-.768 1.322-1.397L14.5 8.04V4A1.5 1.5 0 0 0 13 2.5H5.89l-.847-1H13A2.5 2.5 0 0 1 15.5 4v8a2.49 2.49 0 0 1-.548 1.562 1.991 1.991 0 0 0-.425-.854l-.132-.156c.068-.17.105-.357.105-.552V9.26ZM6.748 3.515a2 2 0 0 1 1.75 2.069l-1.75-2.069ZM2.118 1.823a.5.5 0 1 1 .764-.646l11 13a.5.5 0 1 1-.764.646l-11-13Z"/>
    </g>
</svg>
