<svg width="16" height="16" xmlns="http://www.w3.org/2000/svg" viewBox="0 0 16 16">
    <path d="m7 7.244-1.613 1.97a.5.5 0 1 1-.774-.634L7.13 5.507A1 1 0 0 1 8 5h1a1 1 0 0 1 .852.476l2.431 3.113a.5.5 0 0 1-.788.616L10 7.29V10a.996.996 0 0 1-.2.6.5.5 0 0 1 .2.4v4.5a.5.5 0 1 1-1 0V11H8v4.5a.5.5 0 1 1-1 0V11a.5.5 0 0 1 .2-.4.996.996 0 0 1-.2-.6V7.244Zm1-1.221V10h1V6.01L8.992 6H8.02a.51.51 0 0 1-.004.005L8 6.023ZM8.5 4.5a2 2 0 1 1 0-4 2 2 0 0 1 0 4Zm0-1a1 1 0 1 0 0-2 1 1 0 0 0 0 2Z" fill="currentColor" fill-rule="nonzero"/>
</svg>
