<svg width="16" height="16" xmlns="http://www.w3.org/2000/svg" viewBox="0 0 16 16">
    <path d="M8.75 13.531v-2.112c-.163.036-.33.06-.5.072v3.004c.084-.003.167-.008.25-.014a1.99 1.99 0 0 1 .25-.95Zm.5-.592c.15-.12.319-.22.5-.294v-1.613c-.16.092-.326.172-.5.238v1.669Zm-2 .592c.156.282.247.606.25.95.083.006.166.011.25.014v-3.004a3.498 3.498 0 0 1-.5-.072v2.112Zm-.5-.592V11.27a3.484 3.484 0 0 1-.5-.238v1.613c.181.074.35.173.5.294Zm-1-.424v-1.834a3.521 3.521 0 0 1-.5-.516v2.35a2.01 2.01 0 0 1 .5 0Zm4.5 0a2.02 2.02 0 0 1 .5 0v-2.35a3.521 3.521 0 0 1-.5.516v1.834Zm-.5-9.16a1.998 1.998 0 0 1-.5-.294V4.73c.174.066.34.146.5.238V3.355Zm.5.13v1.834c.184.154.351.327.5.516v-2.35a2.01 2.01 0 0 1-.5 0Zm-1.5-1.016a1.99 1.99 0 0 1-.25-.95 6.573 6.573 0 0 0-.25-.014v3.004c.17.012.337.036.5.072V2.469Zm-1-.964a6.573 6.573 0 0 0-.25.014 1.99 1.99 0 0 1-.25.95v2.112c.163-.036.33-.06.5-.072V1.505Zm-1.5 1.85v1.613c.16-.092.326-.172.5-.238V3.06c-.15.12-.319.22-.5.294Zm-.5.13a2.02 2.02 0 0 1-.5 0v2.35c.149-.189.316-.362.5-.516V3.485Zm6-.423a2 2 0 0 1-.5.292v3.344c.161.403.25.842.25 1.302 0 .46-.089.9-.25 1.302v3.344a2 2 0 0 1 .5.292V3.062Zm.5.02v9.836c.175-.151.342-.312.5-.48v-.97a1.996 1.996 0 0 1 0-1.937V6.469a1.996 1.996 0 0 1 0-1.938v-.968a6.543 6.543 0 0 0-.5-.481Zm-8-.02v9.876a2 2 0 0 1 .5-.292V9.302A3.49 3.49 0 0 1 4.5 8c0-.46.089-.9.25-1.302V3.354a2 2 0 0 1-.5-.292Zm-.5.02a6.543 6.543 0 0 0-.5.48v.97a1.996 1.996 0 0 1 0 1.937v3.062a1.996 1.996 0 0 1 0 1.938v.968c.158.17.325.33.5.481V3.082Zm9.5 3.98v1.877c.15-.12.319-.22.5-.294v-1.29a1.998 1.998 0 0 1-.5-.294Zm1 .423v1.03c.076-.009.153-.014.231-.015a6.598 6.598 0 0 0 0-1c-.078 0-.155-.006-.231-.015Zm-12-.13v1.29c.181.074.35.173.5.294V7.06c-.15.12-.319.22-.5.294Zm-.5.13c-.076.009-.153.014-.231.015a6.598 6.598 0 0 0 0 1c.078 0 .155.006.231.015v-1.03Zm12.514 4.641a7.538 7.538 0 0 1-2.138 2.138.5.5 0 0 1-.725-.2 1 1 0 0 0-1.861.716.5.5 0 0 1-.405.635 7.555 7.555 0 0 1-2.27 0 .5.5 0 0 1-.405-.635 1 1 0 0 0-1.86-.715.5.5 0 0 1-.726.199 7.538 7.538 0 0 1-2.138-2.138.5.5 0 0 1 .2-.725A1 1 0 0 0 1.22 9.54a.5.5 0 0 1-.635-.405 7.555 7.555 0 0 1 0-2.27.5.5 0 0 1 .635-.405 1 1 0 0 0 .715-1.86.5.5 0 0 1-.199-.726 7.538 7.538 0 0 1 2.138-2.138.5.5 0 0 1 .725.2A1 1 0 0 0 6.46 1.22a.5.5 0 0 1 .405-.635 7.555 7.555 0 0 1 2.27 0 .5.5 0 0 1 .405.635 1 1 0 0 0 1.86.715.5.5 0 0 1 .726-.199 7.538 7.538 0 0 1 2.138 2.138.5.5 0 0 1-.2.725 1 1 0 0 0 .716 1.861.5.5 0 0 1 .635.405 7.555 7.555 0 0 1 0 2.27.5.5 0 0 1-.635.405 1 1 0 0 0-.715 1.86.5.5 0 0 1 .199.726ZM8 10.5a2.5 2.5 0 1 0 0-5 2.5 2.5 0 0 0 0 5Z" fill="currentColor" fill-rule="nonzero"/>
</svg>
