<svg width="16" height="16" xmlns="http://www.w3.org/2000/svg" viewBox="0 0 16 16">
    <g fill="currentColor" fill-rule="nonzero">
        <path d="M1.106 6.784a7 7 0 0 0 12.915 4.79c-3.152 1.208-6.614.61-8.433-1.595-1.973-2.392-1.546-6.066.984-8.834a7.002 7.002 0 0 0-5.466 5.64Zm5.505 9.094A8 8 0 1 1 9.389.122c-4.36 2.66-4.834 7.033-3.03 9.22 1.805 2.188 6.103 2.705 9.52.047a7.975 7.975 0 0 1-1.164 2.962 8.002 8.002 0 0 1-8.104 3.527Z"/>
        <path d="M2.75 2.5a.25.25 0 1 1 .5 0v11a.25.25 0 1 1-.5 0v-11ZM3.75 1.5a.25.25 0 1 1 .5 0v13a.25.25 0 1 1-.5 0v-13ZM4.75 1.152a.25.25 0 0 1 .5 0v13.835a.25.25 0 1 1-.5 0V1.152ZM1.75 3.5a.25.25 0 1 1 .5 0v9a.25.25 0 1 1-.5 0v-9ZM5.75 9.5a.25.25 0 1 1 .5 0v6a.25.25 0 1 1-.5 0v-6ZM6.75 10.5a.25.25 0 1 1 .5 0v5a.25.25 0 1 1-.5 0v-5ZM7.75 11.5a.25.25 0 1 1 .5 0v4a.25.25 0 1 1-.5 0v-4ZM8.75 11.5a.25.25 0 1 1 .5 0v4a.25.25 0 1 1-.5 0v-4ZM9.75 11.5a.25.25 0 1 1 .5 0v4a.25.25 0 1 1-.5 0v-4ZM10.75 11.5a.25.25 0 1 1 .5 0v3a.25.25 0 1 1-.5 0v-3ZM11.75 11.5a.25.25 0 1 1 .5 0v3a.25.25 0 1 1-.5 0v-3ZM12.75 11.5a.25.25 0 1 1 .5 0v2a.25.25 0 1 1-.5 0v-2ZM13.75 11.5a.25.25 0 1 1 .5 0v1a.25.25 0 1 1-.5 0v-1ZM5.75.902h.5V2.75h-.5zM.75 5.5a.25.25 0 1 1 .5 0v5a.25.25 0 1 1-.5 0v-5Z"/>
    </g>
</svg>
