<svg width="16" height="16" xmlns="http://www.w3.org/2000/svg" viewBox="0 0 16 16">
    <path d="m7 6.79-.894.677a.5.5 0 0 1-.689-.082l-1.69-2.069a.5.5 0 1 1 .773-.632l1.387 1.695L7.23 5.362A.998.998 0 0 1 8 5h1a1 1 0 0 1 .852.476l2.431 3.113a.5.5 0 0 1-.788.616L10 7.29V10a.996.996 0 0 1-.2.6.5.5 0 0 1 .2.4v4.5a.5.5 0 1 1-1 0V11H8v4.5a.5.5 0 1 1-1 0V11a.5.5 0 0 1 .2-.4.996.996 0 0 1-.2-.6V6.79Zm1-.768V10h1V6.01L8.992 6H8.02A.497.497 0 0 1 8 6.022ZM8.5 4.5a2 2 0 1 1 0-4 2 2 0 0 1 0 4Zm0-1a1 1 0 1 0 0-2 1 1 0 0 0 0 2Z" fill="currentColor" fill-rule="nonzero"/>
</svg>
