<svg width="16" height="16" xmlns="http://www.w3.org/2000/svg" viewBox="0 0 16 16">
    <g fill="currentColor" fill-rule="nonzero">
        <path d="M8 12a4 4 0 1 0 0-8 4 4 0 0 0 0 8Zm0 1A5 5 0 1 1 8 3a5 5 0 0 1 0 10ZM8.5 1.5a.5.5 0 0 1-1 0V.545a.5.5 0 0 1 1 0V1.5ZM8.5 15.5a.5.5 0 1 1-1 0v-.955a.5.5 0 0 1 1 0v.955ZM12.965 3.764a.5.5 0 0 1-.707-.707l.676-.676a.5.5 0 1 1 .707.707l-.676.676ZM3.066 13.663a.5.5 0 0 1-.707-.707l.676-.675a.5.5 0 1 1 .707.707l-.676.675ZM14.522 8.522a.5.5 0 1 1 0-1h.956a.5.5 0 1 1 0 1h-.956ZM.522 8.522a.5.5 0 0 1 0-1h.956a.5.5 0 1 1 0 1H.522ZM12.258 12.988a.5.5 0 0 1 .707-.707l.676.675a.5.5 0 1 1-.707.707l-.676-.675ZM2.359 3.088a.5.5 0 1 1 .707-.707l.676.676a.5.5 0 1 1-.707.707l-.676-.676Z"/>
    </g>
</svg>
